<svg id="Calque_1" data-name="Calque 1" xmlns="http://www.w3.org/2000/svg" viewBox="0 0 1080 1080"><defs><style>.cls-1{fill:#fff;}</style></defs><rect class="cls-1" width="1080" height="1080"/><path d="M223.09,713.11v-361h53.12L397.92,572.32H400l121.7-220.21h52.09v361H531V423.79h-2.07L401,651.23h-5.16L268,422.25H265.9V713.11Z"/><path d="M675.89,694.55c-16.5-15.48-24.75-35.07-24.75-58.28,0-48,36.1-82.52,108.81-82.52a241.05,241.05,0,0,1,65,9.29v-26.3c0-31.46-20.11-54.67-60.85-54.67-37.13,0-57.76,20.11-58.28,46.93H664c0-25.27,9.28-45.38,27.85-60.85,19.08-15.48,42.8-23.21,72.2-23.21,32.49,0,57.76,8.77,75.81,25.78s27.33,38.68,27.33,65v177.4H830.6L827.51,676h-2.06c-16.51,27.85-43.84,41.77-82.52,41.77C715.08,717.75,692.91,710,675.89,694.55ZM804.3,661c13.93-13.92,20.63-30.42,20.63-50V597.59q-30.16-9.29-65-9.28c-43.32,0-65,16-65,47.44,0,27.34,19.08,45.9,55.7,45.9C772.84,681.65,790.38,675,804.3,661Z"/></svg>