<?xml version="1.0" encoding="utf-8"?>
<!-- Generator: Adobe Illustrator 25.0.0, SVG Export Plug-In . SVG Version: 6.00 Build 0)  -->
<svg version="1.1" id="Calque_1" xmlns="http://www.w3.org/2000/svg" xmlns:xlink="http://www.w3.org/1999/xlink" x="0px" y="0px"
	 viewBox="0 0 1080 1080" style="enable-background:new 0 0 1080 1080;" xml:space="preserve">
<style type="text/css">
	.st0{fill:#FFFFFF;}
</style>
<g>
	<rect width="1080" height="1080"/>
</g>
<g>
	<path class="st0" d="M223.1,713.11v-361h53.12l121.71,220.21h2.06l121.71-220.21h52.09v361h-42.8V423.79h-2.06l-127.9,227.43h-5.16
		l-127.9-228.98h-2.06v290.86H223.1z"/>
	<path class="st0" d="M675.89,694.55c-16.5-15.47-24.75-35.07-24.75-58.28c0-47.96,36.1-82.51,108.82-82.51
		c21.14,0,42.8,3.09,64.98,9.28v-26.3c0-31.46-20.11-54.67-60.85-54.67c-37.13,0-57.76,20.11-58.28,46.93h-41.77
		c0-25.27,9.28-45.38,27.85-60.85c19.08-15.47,42.8-23.21,72.2-23.21c32.49,0,57.76,8.77,75.81,25.79s27.33,38.68,27.33,64.98
		v177.41H830.6l-3.09-37.13h-2.06c-16.5,27.85-43.84,41.77-82.51,41.77C715.08,717.75,692.91,710.02,675.89,694.55z M804.3,661.02
		c13.92-13.92,20.63-30.43,20.63-50.03v-13.41c-20.11-6.19-41.77-9.28-64.98-9.28c-43.32,0-64.98,15.99-64.98,47.45
		c0,27.33,19.08,45.9,55.7,45.9C772.84,681.65,790.38,674.95,804.3,661.02z"/>
</g>
</svg>
