<?xml version="1.0" encoding="utf-8"?>
<!-- Generator: Adobe Illustrator 25.0.0, SVG Export Plug-In . SVG Version: 6.00 Build 0)  -->
<svg version="1.1" id="Calque_1" xmlns="http://www.w3.org/2000/svg" xmlns:xlink="http://www.w3.org/1999/xlink" x="0px" y="0px"
	 viewBox="0 0 1080 1080" style="enable-background:new 0 0 1080 1080;" xml:space="preserve">
<style type="text/css">
	.st0{fill:#FFFFFF;}
</style>
<g>
	<rect class="st0" width="1080" height="1080"/>
</g>
<g>
	<path d="M35.98,823.03v-563.3h82.89l189.91,343.61h3.22l189.91-343.61h81.28v563.3h-66.79V371.58h-3.22L313.6,726.46h-8.05
		L105.99,369.17h-3.22v453.86H35.98z"/>
	<path d="M742.51,794.06c-25.75-24.14-38.63-54.72-38.63-90.93c0-74.84,56.33-128.75,169.79-128.75c32.99,0,66.79,4.83,101.39,14.49
		v-41.04c0-49.09-31.38-85.3-94.96-85.3c-57.94,0-90.13,31.38-90.93,73.23H724c0-39.43,14.49-70.82,43.45-94.96
		c29.78-24.14,66.79-36.21,112.66-36.21c50.7,0,90.13,13.68,118.29,40.24c28.16,26.56,42.65,60.35,42.65,101.39v276.82h-57.14
		l-4.83-57.94h-3.22c-25.75,43.45-68.4,65.18-128.75,65.18C803.67,830.27,769.06,818.2,742.51,794.06z M942.88,741.75
		c21.73-21.73,32.19-47.48,32.19-78.06v-20.92c-31.38-9.66-65.18-14.49-101.39-14.49c-67.59,0-101.39,24.95-101.39,74.03
		c0,42.65,29.77,71.62,86.91,71.62C893.8,773.94,921.16,763.48,942.88,741.75z"/>
</g>
</svg>
